<svg xmlns="http://www.w3.org/2000/svg" xmlns:xlink="http://www.w3.org/1999/xlink" width="440" zoomAndPan="magnify" viewBox="0 0 330 119.999999" height="160" preserveAspectRatio="xMidYMid meet" version="1.0"><defs><g/><clipPath id="3801fd47b7"><path d="M 21 70 L 68.203125 70 L 68.203125 77.785156 L 21 77.785156 Z M 21 70 " clip-rule="nonzero"/></clipPath><clipPath id="efd8df8532"><path d="M 27 46.289062 L 62 46.289062 L 62 69 L 27 69 Z M 27 46.289062 " clip-rule="nonzero"/></clipPath></defs><g clip-path="url(#3801fd47b7)"><path fill="#123659" d="M 51.410156 75.804688 L 37.792969 75.804688 C 37.699219 75.804688 37.636719 75.707031 37.679688 75.621094 L 38.730469 73.605469 C 38.75 73.5625 38.792969 73.535156 38.839844 73.535156 L 50.363281 73.535156 C 50.410156 73.535156 50.453125 73.5625 50.472656 73.605469 L 51.523438 75.621094 C 51.566406 75.707031 51.503906 75.804688 51.410156 75.804688 Z M 67.902344 76.035156 L 62.261719 70.394531 C 62.070312 70.199219 61.808594 70.09375 61.535156 70.09375 L 27.667969 70.09375 C 27.394531 70.09375 27.132812 70.199219 26.941406 70.394531 L 21.300781 76.035156 C 21.109375 76.226562 21 76.488281 21 76.761719 C 21 77.328125 21.460938 77.785156 22.027344 77.785156 L 67.175781 77.785156 C 67.742188 77.785156 68.203125 77.328125 68.203125 76.761719 C 68.203125 76.488281 68.09375 76.226562 67.902344 76.035156 " fill-opacity="1" fill-rule="nonzero"/></g><g clip-path="url(#efd8df8532)"><path fill="#123659" d="M 60.273438 46.300781 L 28.929688 46.300781 C 28.023438 46.300781 27.28125 47.042969 27.28125 47.949219 L 27.28125 66.558594 C 27.28125 67.464844 28.023438 68.207031 28.929688 68.207031 L 60.273438 68.207031 C 61.179688 68.207031 61.921875 67.464844 61.921875 66.558594 L 61.921875 47.949219 C 61.921875 47.042969 61.179688 46.300781 60.273438 46.300781 Z M 60.011719 48.210938 L 60.011719 66.300781 L 29.191406 66.300781 L 29.191406 48.210938 L 60.011719 48.210938 " fill-opacity="1" fill-rule="nonzero"/></g><g fill="#ff5c35" fill-opacity="1"><g transform="translate(69.229239, 77.340478)"><g><path d="M 2.96875 0 L 2.96875 -30.625 L 8.578125 -30.625 L 8.578125 -4.375 L 22.140625 -4.375 L 22.140625 0 Z M 2.96875 0 "/></g></g></g><g fill="#ff5c35" fill-opacity="1"><g transform="translate(91.363582, 77.340478)"><g><path d="M 10.328125 0.53125 C 8.460938 0.53125 6.929688 0.234375 5.734375 -0.359375 C 4.535156 -0.960938 3.644531 -1.757812 3.0625 -2.75 C 2.476562 -3.75 2.1875 -4.84375 2.1875 -6.03125 C 2.1875 -8.050781 2.972656 -9.6875 4.546875 -10.9375 C 6.117188 -12.1875 8.484375 -12.8125 11.640625 -12.8125 L 17.15625 -12.8125 L 17.15625 -13.34375 C 17.15625 -14.832031 16.726562 -15.925781 15.875 -16.625 C 15.03125 -17.320312 13.984375 -17.671875 12.734375 -17.671875 C 11.597656 -17.671875 10.601562 -17.398438 9.75 -16.859375 C 8.90625 -16.328125 8.382812 -15.535156 8.1875 -14.484375 L 2.71875 -14.484375 C 2.863281 -16.054688 3.394531 -17.425781 4.3125 -18.59375 C 5.226562 -19.757812 6.414062 -20.65625 7.875 -21.28125 C 9.332031 -21.90625 10.96875 -22.21875 12.78125 -22.21875 C 15.863281 -22.21875 18.296875 -21.445312 20.078125 -19.90625 C 21.859375 -18.363281 22.75 -16.175781 22.75 -13.34375 L 22.75 0 L 17.984375 0 L 17.453125 -3.5 C 16.816406 -2.332031 15.921875 -1.367188 14.765625 -0.609375 C 13.609375 0.148438 12.128906 0.53125 10.328125 0.53125 Z M 11.59375 -3.84375 C 13.195312 -3.84375 14.441406 -4.367188 15.328125 -5.421875 C 16.222656 -6.472656 16.785156 -7.769531 17.015625 -9.3125 L 12.25 -9.3125 C 10.757812 -9.3125 9.691406 -9.039062 9.046875 -8.5 C 8.410156 -7.96875 8.09375 -7.304688 8.09375 -6.515625 C 8.09375 -5.671875 8.410156 -5.015625 9.046875 -4.546875 C 9.691406 -4.078125 10.539062 -3.84375 11.59375 -3.84375 Z M 11.59375 -3.84375 "/></g></g></g><g fill="#ff5c35" fill-opacity="1"><g transform="translate(114.635282, 77.340478)"><g><path d="M 2.84375 9.625 L 2.84375 -21.703125 L 7.828125 -21.703125 L 8.4375 -18.59375 C 9.144531 -19.550781 10.070312 -20.394531 11.21875 -21.125 C 12.375 -21.851562 13.867188 -22.21875 15.703125 -22.21875 C 17.742188 -22.21875 19.566406 -21.722656 21.171875 -20.734375 C 22.773438 -19.742188 24.039062 -18.390625 24.96875 -16.671875 C 25.90625 -14.953125 26.375 -13 26.375 -10.8125 C 26.375 -8.625 25.90625 -6.675781 24.96875 -4.96875 C 24.039062 -3.257812 22.773438 -1.914062 21.171875 -0.9375 C 19.566406 0.0390625 17.742188 0.53125 15.703125 0.53125 C 14.066406 0.53125 12.632812 0.222656 11.40625 -0.390625 C 10.1875 -1.003906 9.195312 -1.863281 8.4375 -2.96875 L 8.4375 9.625 Z M 14.53125 -4.375 C 16.300781 -4.375 17.769531 -4.972656 18.9375 -6.171875 C 20.101562 -7.367188 20.6875 -8.914062 20.6875 -10.8125 C 20.6875 -12.707031 20.101562 -14.265625 18.9375 -15.484375 C 17.769531 -16.710938 16.300781 -17.328125 14.53125 -17.328125 C 12.71875 -17.328125 11.234375 -16.71875 10.078125 -15.5 C 8.929688 -14.289062 8.359375 -12.738281 8.359375 -10.84375 C 8.359375 -8.945312 8.929688 -7.394531 10.078125 -6.1875 C 11.234375 -4.976562 12.71875 -4.375 14.53125 -4.375 Z M 14.53125 -4.375 "/></g></g></g><g fill="#ff5c35" fill-opacity="1"><g transform="translate(141.187829, 77.340478)"><g><path d="M 10.328125 0.53125 C 8.460938 0.53125 6.929688 0.234375 5.734375 -0.359375 C 4.535156 -0.960938 3.644531 -1.757812 3.0625 -2.75 C 2.476562 -3.75 2.1875 -4.84375 2.1875 -6.03125 C 2.1875 -8.050781 2.972656 -9.6875 4.546875 -10.9375 C 6.117188 -12.1875 8.484375 -12.8125 11.640625 -12.8125 L 17.15625 -12.8125 L 17.15625 -13.34375 C 17.15625 -14.832031 16.726562 -15.925781 15.875 -16.625 C 15.03125 -17.320312 13.984375 -17.671875 12.734375 -17.671875 C 11.597656 -17.671875 10.601562 -17.398438 9.75 -16.859375 C 8.90625 -16.328125 8.382812 -15.535156 8.1875 -14.484375 L 2.71875 -14.484375 C 2.863281 -16.054688 3.394531 -17.425781 4.3125 -18.59375 C 5.226562 -19.757812 6.414062 -20.65625 7.875 -21.28125 C 9.332031 -21.90625 10.96875 -22.21875 12.78125 -22.21875 C 15.863281 -22.21875 18.296875 -21.445312 20.078125 -19.90625 C 21.859375 -18.363281 22.75 -16.175781 22.75 -13.34375 L 22.75 0 L 17.984375 0 L 17.453125 -3.5 C 16.816406 -2.332031 15.921875 -1.367188 14.765625 -0.609375 C 13.609375 0.148438 12.128906 0.53125 10.328125 0.53125 Z M 11.59375 -3.84375 C 13.195312 -3.84375 14.441406 -4.367188 15.328125 -5.421875 C 16.222656 -6.472656 16.785156 -7.769531 17.015625 -9.3125 L 12.25 -9.3125 C 10.757812 -9.3125 9.691406 -9.039062 9.046875 -8.5 C 8.410156 -7.96875 8.09375 -7.304688 8.09375 -6.515625 C 8.09375 -5.671875 8.410156 -5.015625 9.046875 -4.546875 C 9.691406 -4.078125 10.539062 -3.84375 11.59375 -3.84375 Z M 11.59375 -3.84375 "/></g></g></g><g fill="#123659" fill-opacity="1"><g transform="translate(164.723372, 77.229513)"><g><path d="M 2.25 0 L 2.25 -17.203125 L 6.171875 -17.203125 L 6.515625 -14.28125 C 7.046875 -15.300781 7.8125 -16.109375 8.8125 -16.703125 C 9.820312 -17.304688 11.007812 -17.609375 12.375 -17.609375 C 14.5 -17.609375 16.148438 -16.9375 17.328125 -15.59375 C 18.515625 -14.257812 19.109375 -12.296875 19.109375 -9.703125 L 19.109375 0 L 14.671875 0 L 14.671875 -9.296875 C 14.671875 -10.773438 14.367188 -11.90625 13.765625 -12.6875 C 13.160156 -13.476562 12.222656 -13.875 10.953125 -13.875 C 9.703125 -13.875 8.675781 -13.429688 7.875 -12.546875 C 7.082031 -11.671875 6.6875 -10.445312 6.6875 -8.875 L 6.6875 0 Z M 2.25 0 "/></g></g></g><g fill="#123659" fill-opacity="1"><g transform="translate(184.481062, 77.229513)"><g><path d="M 10.609375 0.421875 C 8.878906 0.421875 7.34375 0.0507812 6 -0.6875 C 4.65625 -1.425781 3.601562 -2.46875 2.84375 -3.8125 C 2.082031 -5.15625 1.703125 -6.703125 1.703125 -8.453125 C 1.703125 -10.234375 2.078125 -11.816406 2.828125 -13.203125 C 3.578125 -14.597656 4.613281 -15.679688 5.9375 -16.453125 C 7.269531 -17.222656 8.835938 -17.609375 10.640625 -17.609375 C 12.328125 -17.609375 13.816406 -17.238281 15.109375 -16.5 C 16.410156 -15.757812 17.425781 -14.75 18.15625 -13.46875 C 18.882812 -12.1875 19.25 -10.757812 19.25 -9.1875 C 19.25 -8.9375 19.238281 -8.671875 19.21875 -8.390625 C 19.207031 -8.109375 19.191406 -7.820312 19.171875 -7.53125 L 6.109375 -7.53125 C 6.191406 -6.1875 6.65625 -5.128906 7.5 -4.359375 C 8.34375 -3.597656 9.367188 -3.21875 10.578125 -3.21875 C 11.472656 -3.21875 12.226562 -3.421875 12.84375 -3.828125 C 13.457031 -4.234375 13.914062 -4.757812 14.21875 -5.40625 L 18.71875 -5.40625 C 18.394531 -4.320312 17.859375 -3.332031 17.109375 -2.4375 C 16.359375 -1.550781 15.429688 -0.851562 14.328125 -0.34375 C 13.234375 0.164062 11.992188 0.421875 10.609375 0.421875 Z M 10.640625 -14 C 9.554688 -14 8.597656 -13.691406 7.765625 -13.078125 C 6.929688 -12.472656 6.398438 -11.546875 6.171875 -10.296875 L 14.734375 -10.296875 C 14.660156 -11.429688 14.242188 -12.332031 13.484375 -13 C 12.722656 -13.664062 11.773438 -14 10.640625 -14 Z M 10.640625 -14 "/></g></g></g><g fill="#123659" fill-opacity="1"><g transform="translate(203.892125, 77.229513)"><g><path d="M 12.96875 0.421875 C 10.675781 0.421875 8.675781 -0.0976562 6.96875 -1.140625 C 5.257812 -2.179688 3.929688 -3.628906 2.984375 -5.484375 C 2.035156 -7.347656 1.5625 -9.519531 1.5625 -12 C 1.5625 -14.488281 2.050781 -16.6875 3.03125 -18.59375 C 4.007812 -20.507812 5.40625 -22.003906 7.21875 -23.078125 C 9.039062 -24.148438 11.203125 -24.6875 13.703125 -24.6875 C 16.535156 -24.6875 18.890625 -24.003906 20.765625 -22.640625 C 22.640625 -21.273438 23.851562 -19.390625 24.40625 -16.984375 L 19.453125 -16.984375 C 19.078125 -18.117188 18.40625 -19.003906 17.4375 -19.640625 C 16.46875 -20.273438 15.222656 -20.59375 13.703125 -20.59375 C 11.273438 -20.59375 9.398438 -19.820312 8.078125 -18.28125 C 6.765625 -16.75 6.109375 -14.644531 6.109375 -11.96875 C 6.109375 -9.28125 6.757812 -7.203125 8.0625 -5.734375 C 9.363281 -4.265625 11.140625 -3.53125 13.390625 -3.53125 C 15.578125 -3.53125 17.234375 -4.125 18.359375 -5.3125 C 19.484375 -6.507812 20.160156 -8.078125 20.390625 -10.015625 L 14.25 -10.015625 L 14.25 -13.34375 L 24.859375 -13.34375 L 24.859375 0 L 20.765625 0 L 20.421875 -3.1875 C 19.640625 -2.03125 18.65625 -1.140625 17.46875 -0.515625 C 16.289062 0.109375 14.789062 0.421875 12.96875 0.421875 Z M 12.96875 0.421875 "/></g></g></g><g fill="#123659" fill-opacity="1"><g transform="translate(229.369229, 77.229513)"><g><path d="M 10.5 0.421875 C 8.84375 0.421875 7.347656 0.0390625 6.015625 -0.71875 C 4.679688 -1.488281 3.628906 -2.546875 2.859375 -3.890625 C 2.085938 -5.242188 1.703125 -6.8125 1.703125 -8.59375 C 1.703125 -10.375 2.09375 -11.941406 2.875 -13.296875 C 3.664062 -14.648438 4.722656 -15.707031 6.046875 -16.46875 C 7.378906 -17.226562 8.878906 -17.609375 10.546875 -17.609375 C 12.179688 -17.609375 13.660156 -17.226562 14.984375 -16.46875 C 16.316406 -15.707031 17.367188 -14.648438 18.140625 -13.296875 C 18.921875 -11.941406 19.3125 -10.375 19.3125 -8.59375 C 19.3125 -6.8125 18.921875 -5.242188 18.140625 -3.890625 C 17.367188 -2.546875 16.3125 -1.488281 14.96875 -0.71875 C 13.632812 0.0390625 12.144531 0.421875 10.5 0.421875 Z M 10.5 -3.4375 C 11.65625 -3.4375 12.660156 -3.867188 13.515625 -4.734375 C 14.378906 -5.597656 14.8125 -6.882812 14.8125 -8.59375 C 14.8125 -10.3125 14.378906 -11.601562 13.515625 -12.46875 C 12.660156 -13.332031 11.671875 -13.765625 10.546875 -13.765625 C 9.359375 -13.765625 8.34375 -13.332031 7.5 -12.46875 C 6.65625 -11.601562 6.234375 -10.3125 6.234375 -8.59375 C 6.234375 -6.882812 6.65625 -5.597656 7.5 -4.734375 C 8.34375 -3.867188 9.34375 -3.4375 10.5 -3.4375 Z M 9.375 -18.578125 L 9.375 -21.703125 L 17.203125 -25.9375 L 17.203125 -22.328125 Z M 9.375 -18.578125 "/></g></g></g><g fill="#123659" fill-opacity="1"><g transform="translate(249.057597, 77.229513)"><g><path d="M 10.671875 0.421875 C 8.921875 0.421875 7.375 0.0390625 6.03125 -0.71875 C 4.6875 -1.488281 3.628906 -2.554688 2.859375 -3.921875 C 2.085938 -5.285156 1.703125 -6.84375 1.703125 -8.59375 C 1.703125 -10.351562 2.085938 -11.914062 2.859375 -13.28125 C 3.628906 -14.644531 4.6875 -15.707031 6.03125 -16.46875 C 7.375 -17.226562 8.921875 -17.609375 10.671875 -17.609375 C 12.867188 -17.609375 14.71875 -17.035156 16.21875 -15.890625 C 17.726562 -14.753906 18.691406 -13.179688 19.109375 -11.171875 L 14.421875 -11.171875 C 14.191406 -11.992188 13.734375 -12.640625 13.046875 -13.109375 C 12.367188 -13.585938 11.566406 -13.828125 10.640625 -13.828125 C 9.421875 -13.828125 8.378906 -13.363281 7.515625 -12.4375 C 6.660156 -11.519531 6.234375 -10.238281 6.234375 -8.59375 C 6.234375 -6.957031 6.660156 -5.675781 7.515625 -4.75 C 8.378906 -3.820312 9.421875 -3.359375 10.640625 -3.359375 C 11.566406 -3.359375 12.367188 -3.585938 13.046875 -4.046875 C 13.734375 -4.515625 14.191406 -5.175781 14.421875 -6.03125 L 19.109375 -6.03125 C 18.691406 -4.09375 17.726562 -2.53125 16.21875 -1.34375 C 14.71875 -0.164062 12.867188 0.421875 10.671875 0.421875 Z M 10.671875 0.421875 "/></g></g></g><g fill="#123659" fill-opacity="1"><g transform="translate(268.537983, 77.229513)"><g><path d="M 4.640625 -19.859375 C 3.835938 -19.859375 3.175781 -20.101562 2.65625 -20.59375 C 2.132812 -21.082031 1.875 -21.695312 1.875 -22.4375 C 1.875 -23.175781 2.132812 -23.78125 2.65625 -24.25 C 3.175781 -24.726562 3.835938 -24.96875 4.640625 -24.96875 C 5.453125 -24.96875 6.117188 -24.726562 6.640625 -24.25 C 7.160156 -23.78125 7.421875 -23.175781 7.421875 -22.4375 C 7.421875 -21.695312 7.160156 -21.082031 6.640625 -20.59375 C 6.117188 -20.101562 5.453125 -19.859375 4.640625 -19.859375 Z M 2.421875 0 L 2.421875 -17.203125 L 6.859375 -17.203125 L 6.859375 0 Z M 2.421875 0 "/></g></g></g><g fill="#123659" fill-opacity="1"><g transform="translate(276.475551, 77.229513)"><g><path d="M 10.5 0.421875 C 8.84375 0.421875 7.347656 0.0390625 6.015625 -0.71875 C 4.679688 -1.488281 3.628906 -2.546875 2.859375 -3.890625 C 2.085938 -5.242188 1.703125 -6.8125 1.703125 -8.59375 C 1.703125 -10.375 2.09375 -11.941406 2.875 -13.296875 C 3.664062 -14.648438 4.722656 -15.707031 6.046875 -16.46875 C 7.378906 -17.226562 8.878906 -17.609375 10.546875 -17.609375 C 12.179688 -17.609375 13.660156 -17.226562 14.984375 -16.46875 C 16.316406 -15.707031 17.367188 -14.648438 18.140625 -13.296875 C 18.921875 -11.941406 19.3125 -10.375 19.3125 -8.59375 C 19.3125 -6.8125 18.921875 -5.242188 18.140625 -3.890625 C 17.367188 -2.546875 16.3125 -1.488281 14.96875 -0.71875 C 13.632812 0.0390625 12.144531 0.421875 10.5 0.421875 Z M 10.5 -3.4375 C 11.65625 -3.4375 12.660156 -3.867188 13.515625 -4.734375 C 14.378906 -5.597656 14.8125 -6.882812 14.8125 -8.59375 C 14.8125 -10.3125 14.378906 -11.601562 13.515625 -12.46875 C 12.660156 -13.332031 11.671875 -13.765625 10.546875 -13.765625 C 9.359375 -13.765625 8.34375 -13.332031 7.5 -12.46875 C 6.65625 -11.601562 6.234375 -10.3125 6.234375 -8.59375 C 6.234375 -6.882812 6.65625 -5.597656 7.5 -4.734375 C 8.34375 -3.867188 9.34375 -3.4375 10.5 -3.4375 Z M 10.5 -3.4375 "/></g></g></g><g fill="#123659" fill-opacity="1"><g transform="translate(296.163919, 77.229513)"><g><path d="M 9.359375 0.421875 C 7.835938 0.421875 6.5 0.171875 5.34375 -0.328125 C 4.1875 -0.828125 3.257812 -1.515625 2.5625 -2.390625 C 1.875 -3.265625 1.457031 -4.28125 1.3125 -5.4375 L 5.796875 -5.4375 C 5.929688 -4.769531 6.300781 -4.195312 6.90625 -3.71875 C 7.519531 -3.25 8.316406 -3.015625 9.296875 -3.015625 C 10.265625 -3.015625 10.972656 -3.207031 11.421875 -3.59375 C 11.867188 -3.988281 12.09375 -4.441406 12.09375 -4.953125 C 12.09375 -5.691406 11.769531 -6.191406 11.125 -6.453125 C 10.476562 -6.722656 9.578125 -6.988281 8.421875 -7.25 C 7.679688 -7.40625 6.929688 -7.597656 6.171875 -7.828125 C 5.410156 -8.066406 4.710938 -8.363281 4.078125 -8.71875 C 3.441406 -9.070312 2.925781 -9.53125 2.53125 -10.09375 C 2.132812 -10.664062 1.9375 -11.367188 1.9375 -12.203125 C 1.9375 -13.734375 2.539062 -15.015625 3.75 -16.046875 C 4.96875 -17.085938 6.675781 -17.609375 8.875 -17.609375 C 10.90625 -17.609375 12.523438 -17.132812 13.734375 -16.1875 C 14.953125 -15.238281 15.679688 -13.9375 15.921875 -12.28125 L 11.71875 -12.28125 C 11.46875 -13.550781 10.507812 -14.1875 8.84375 -14.1875 C 8.007812 -14.1875 7.363281 -14.019531 6.90625 -13.6875 C 6.457031 -13.363281 6.234375 -12.960938 6.234375 -12.484375 C 6.234375 -11.972656 6.566406 -11.566406 7.234375 -11.265625 C 7.910156 -10.960938 8.804688 -10.6875 9.921875 -10.4375 C 11.117188 -10.15625 12.21875 -9.847656 13.21875 -9.515625 C 14.226562 -9.179688 15.03125 -8.679688 15.625 -8.015625 C 16.226562 -7.359375 16.53125 -6.421875 16.53125 -5.203125 C 16.5625 -4.140625 16.285156 -3.179688 15.703125 -2.328125 C 15.128906 -1.472656 14.296875 -0.800781 13.203125 -0.3125 C 12.117188 0.175781 10.835938 0.421875 9.359375 0.421875 Z M 9.359375 0.421875 "/></g></g></g><g fill="#123659" fill-opacity="1"><g transform="translate(95.357495, 49.993268)"><g><path d="M 0.484375 0 L 4.609375 -11.203125 L 6.03125 -11.203125 L 10.15625 0 L 8.734375 0 L 7.703125 -2.875 L 2.9375 -2.875 L 1.890625 0 Z M 3.328125 -3.96875 L 7.296875 -3.96875 L 5.3125 -9.515625 Z M 3.328125 -3.96875 "/></g></g></g><g fill="#123659" fill-opacity="1"><g transform="translate(106.405627, 49.993268)"><g><path d="M 6 0.1875 C 4.957031 0.1875 4.039062 -0.0507812 3.25 -0.53125 C 2.457031 -1.019531 1.84375 -1.695312 1.40625 -2.5625 C 0.96875 -3.4375 0.75 -4.445312 0.75 -5.59375 C 0.75 -6.726562 0.96875 -7.734375 1.40625 -8.609375 C 1.851562 -9.484375 2.484375 -10.164062 3.296875 -10.65625 C 4.117188 -11.15625 5.085938 -11.40625 6.203125 -11.40625 C 7.460938 -11.40625 8.507812 -11.097656 9.34375 -10.484375 C 10.1875 -9.878906 10.726562 -9.039062 10.96875 -7.96875 L 9.421875 -7.96875 C 9.265625 -8.644531 8.90625 -9.179688 8.34375 -9.578125 C 7.789062 -9.972656 7.078125 -10.171875 6.203125 -10.171875 C 5.378906 -10.171875 4.660156 -9.984375 4.046875 -9.609375 C 3.441406 -9.242188 2.96875 -8.71875 2.625 -8.03125 C 2.289062 -7.351562 2.125 -6.539062 2.125 -5.59375 C 2.125 -4.632812 2.289062 -3.8125 2.625 -3.125 C 2.957031 -2.445312 3.414062 -1.925781 4 -1.5625 C 4.59375 -1.195312 5.273438 -1.015625 6.046875 -1.015625 C 7.242188 -1.015625 8.144531 -1.363281 8.75 -2.0625 C 9.363281 -2.757812 9.710938 -3.71875 9.796875 -4.9375 L 6.5625 -4.9375 L 6.5625 -5.984375 L 11.171875 -5.984375 L 11.171875 0 L 9.953125 0 L 9.828125 -1.84375 C 9.421875 -1.1875 8.925781 -0.679688 8.34375 -0.328125 C 7.757812 0.015625 6.976562 0.1875 6 0.1875 Z M 6 0.1875 "/></g></g></g><g fill="#123659" fill-opacity="1"><g transform="translate(118.942804, 49.993268)"><g><path d="M 1.1875 0 L 1.1875 -11.203125 L 8.125 -11.203125 L 8.125 -10.109375 L 2.53125 -10.109375 L 2.53125 -6.203125 L 7.640625 -6.203125 L 7.640625 -5.109375 L 2.53125 -5.109375 L 2.53125 -1.109375 L 8.125 -1.109375 L 8.125 0 Z M 2.53125 -12.09375 L 2.53125 -13.15625 L 4.71875 -14.453125 L 6.921875 -13.15625 L 6.921875 -12.09375 L 4.71875 -13.4375 Z M 2.53125 -12.09375 "/></g></g></g><g fill="#123659" fill-opacity="1"><g transform="translate(128.389818, 49.993268)"><g><path d="M 1.1875 0 L 1.1875 -11.203125 L 2.53125 -11.203125 L 8.5 -2.21875 L 8.5 -11.203125 L 9.84375 -11.203125 L 9.84375 0 L 8.5 0 L 2.53125 -8.984375 L 2.53125 0 Z M 1.1875 0 "/></g></g></g><g fill="#123659" fill-opacity="1"><g transform="translate(139.838235, 49.993268)"><g><path d="M 6.109375 0.1875 C 5.003906 0.1875 4.050781 -0.0507812 3.25 -0.53125 C 2.457031 -1.019531 1.84375 -1.695312 1.40625 -2.5625 C 0.96875 -3.4375 0.75 -4.453125 0.75 -5.609375 C 0.75 -6.742188 0.96875 -7.742188 1.40625 -8.609375 C 1.84375 -9.484375 2.457031 -10.164062 3.25 -10.65625 C 4.050781 -11.15625 5.003906 -11.40625 6.109375 -11.40625 C 7.390625 -11.40625 8.429688 -11.097656 9.234375 -10.484375 C 10.035156 -9.867188 10.550781 -9.007812 10.78125 -7.90625 L 9.28125 -7.90625 C 9.113281 -8.601562 8.765625 -9.160156 8.234375 -9.578125 C 7.710938 -10.003906 7.003906 -10.21875 6.109375 -10.21875 C 5.304688 -10.21875 4.601562 -10.03125 4 -9.65625 C 3.40625 -9.289062 2.941406 -8.765625 2.609375 -8.078125 C 2.285156 -7.390625 2.125 -6.566406 2.125 -5.609375 C 2.125 -4.640625 2.285156 -3.8125 2.609375 -3.125 C 2.941406 -2.4375 3.40625 -1.910156 4 -1.546875 C 4.601562 -1.179688 5.304688 -1 6.109375 -1 C 7.003906 -1 7.710938 -1.203125 8.234375 -1.609375 C 8.765625 -2.015625 9.113281 -2.5625 9.28125 -3.25 L 10.78125 -3.25 C 10.550781 -2.175781 10.035156 -1.332031 9.234375 -0.71875 C 8.429688 -0.113281 7.390625 0.1875 6.109375 0.1875 Z M 6.109375 0.1875 "/></g></g></g><g fill="#123659" fill-opacity="1"><g transform="translate(151.782994, 49.993268)"><g><path d="M 1.1875 0 L 1.1875 -11.203125 L 2.53125 -11.203125 L 2.53125 0 Z M 1.1875 0 "/></g></g></g><g fill="#123659" fill-opacity="1"><g transform="translate(155.914295, 49.993268)"><g><path d="M 0.484375 0 L 4.609375 -11.203125 L 6.03125 -11.203125 L 10.15625 0 L 8.734375 0 L 7.703125 -2.875 L 2.9375 -2.875 L 1.890625 0 Z M 3.328125 -3.96875 L 7.296875 -3.96875 L 5.3125 -9.515625 Z M 3.328125 -3.96875 "/></g></g></g></svg>